<?xml version="1.0" encoding="UTF-8" standalone="no"?>
<!DOCTYPE svg PUBLIC "-//W3C//DTD SVG 1.1//EN"
 "http://www.w3.org/Graphics/SVG/1.1/DTD/svg11.dtd">
<!-- Generated by graphviz version 9.0.0 (20230911.1827)
 -->
<!-- Pages: 1 -->
<svg width="1466pt" height="764pt"
 viewBox="0.00 0.00 1466.08 764.00" xmlns="http://www.w3.org/2000/svg" xmlns:xlink="http://www.w3.org/1999/xlink">
<g id="graph0" class="graph" transform="scale(1 1) rotate(0) translate(4 760)">
<polygon fill="white" stroke="none" points="-4,4 -4,-760 1462.08,-760 1462.08,4 -4,4"/>
<!-- __to_main -->
<g id="node1" class="node">
<title>__to_main</title>
<ellipse fill="none" stroke="black" cx="458.01" cy="-738" rx="50.56" ry="18"/>
<text text-anchor="middle" x="458.01" y="-732.58" font-family="Times New Roman,serif" font-size="14.00">__to_main</text>
</g>
<!-- main -->
<g id="node2" class="node">
<title>main</title>
<ellipse fill="none" stroke="black" cx="458.01" cy="-666" rx="28.11" ry="18"/>
<text text-anchor="middle" x="458.01" y="-660.58" font-family="Times New Roman,serif" font-size="14.00">main</text>
</g>
<!-- __to_main&#45;&gt;main -->
<g id="edge1" class="edge">
<title>__to_main&#45;&gt;main</title>
<path fill="none" stroke="black" d="M458.01,-719.7C458.01,-712.41 458.01,-703.73 458.01,-695.54"/>
<polygon fill="black" stroke="black" points="461.51,-695.62 458.01,-685.62 454.51,-695.62 461.51,-695.62"/>
</g>
<!-- puts -->
<g id="node26" class="node">
<title>puts</title>
<ellipse fill="none" stroke="black" cx="187.01" cy="-594" rx="27" ry="18"/>
<text text-anchor="middle" x="187.01" y="-588.58" font-family="Times New Roman,serif" font-size="14.00">puts</text>
</g>
<!-- main&#45;&gt;puts -->
<g id="edge45" class="edge">
<title>main&#45;&gt;puts</title>
<path fill="none" stroke="black" d="M432.03,-658.29C383.42,-645.73 278.65,-618.67 223.18,-604.34"/>
<polygon fill="black" stroke="black" points="224.15,-600.98 213.59,-601.87 222.4,-607.76 224.15,-600.98"/>
</g>
<!-- ck_uart_init -->
<g id="node29" class="node">
<title>ck_uart_init</title>
<ellipse fill="none" stroke="black" cx="396.01" cy="-594" rx="54.56" ry="18"/>
<text text-anchor="middle" x="396.01" y="-588.58" font-family="Times New Roman,serif" font-size="14.00">ck_uart_init</text>
</g>
<!-- main&#45;&gt;ck_uart_init -->
<g id="edge47" class="edge">
<title>main&#45;&gt;ck_uart_init</title>
<path fill="none" stroke="black" d="M444.56,-649.81C436.84,-641.1 426.97,-629.96 418.14,-619.99"/>
<polygon fill="black" stroke="black" points="420.99,-617.93 411.74,-612.76 415.75,-622.57 420.99,-617.93"/>
</g>
<!-- benchmark -->
<g id="node32" class="node">
<title>benchmark</title>
<ellipse fill="none" stroke="black" cx="526.01" cy="-594" rx="51.56" ry="18"/>
<text text-anchor="middle" x="526.01" y="-588.58" font-family="Times New Roman,serif" font-size="14.00">benchmark</text>
</g>
<!-- main&#45;&gt;benchmark -->
<g id="edge46" class="edge">
<title>main&#45;&gt;benchmark</title>
<path fill="none" stroke="black" d="M472.43,-650.15C481.08,-641.25 492.3,-629.71 502.23,-619.48"/>
<polygon fill="black" stroke="black" points="504.67,-621.99 509.13,-612.38 499.65,-617.11 504.67,-621.99"/>
</g>
<!-- ck_uart_open -->
<g id="node35" class="node">
<title>ck_uart_open</title>
<ellipse fill="none" stroke="black" cx="658.01" cy="-594" rx="62.04" ry="18"/>
<text text-anchor="middle" x="658.01" y="-588.58" font-family="Times New Roman,serif" font-size="14.00">ck_uart_open</text>
</g>
<!-- main&#45;&gt;ck_uart_open -->
<g id="edge44" class="edge">
<title>main&#45;&gt;ck_uart_open</title>
<path fill="none" stroke="black" d="M482.13,-656.56C513.35,-645.63 568.49,-626.33 608.73,-612.25"/>
<polygon fill="black" stroke="black" points="609.68,-615.62 617.97,-609.01 607.37,-609.01 609.68,-615.62"/>
</g>
<!-- _out_rev -->
<g id="node3" class="node">
<title>_out_rev</title>
<ellipse fill="none" stroke="black" cx="356.01" cy="-162" rx="44.08" ry="18"/>
<text text-anchor="middle" x="356.01" y="-156.57" font-family="Times New Roman,serif" font-size="14.00">_out_rev</text>
</g>
<!-- _out_char -->
<g id="node4" class="node">
<title>_out_char</title>
<ellipse fill="none" stroke="black" cx="249.01" cy="-90" rx="48.57" ry="18"/>
<text text-anchor="middle" x="249.01" y="-84.58" font-family="Times New Roman,serif" font-size="14.00">_out_char</text>
</g>
<!-- _out_rev&#45;&gt;_out_char -->
<g id="edge2" class="edge">
<title>_out_rev&#45;&gt;_out_char</title>
<path fill="none" stroke="black" d="M333.32,-146.15C318.24,-136.29 298.21,-123.19 281.46,-112.23"/>
<polygon fill="black" stroke="black" points="283.59,-109.44 273.3,-106.89 279.76,-115.3 283.59,-109.44"/>
</g>
<!-- &lt;fputc&gt; * -->
<g id="node24" class="node">
<title>&lt;fputc&gt; *</title>
<ellipse fill="none" stroke="black" cx="249.01" cy="-18" rx="48.07" ry="18"/>
<text text-anchor="middle" x="249.01" y="-12.57" font-family="Times New Roman,serif" font-size="14.00">&lt;fputc&gt; *</text>
</g>
<!-- _out_char&#45;&gt;&lt;fputc&gt; * -->
<g id="edge31" class="edge">
<title>_out_char&#45;&gt;&lt;fputc&gt; *</title>
<path fill="none" stroke="black" d="M249.01,-71.7C249.01,-64.41 249.01,-55.73 249.01,-47.54"/>
<polygon fill="black" stroke="black" points="252.51,-47.62 249.01,-37.62 245.51,-47.62 252.51,-47.62"/>
</g>
<!-- _ntoa_format -->
<g id="node5" class="node">
<title>_ntoa_format</title>
<ellipse fill="none" stroke="black" cx="231.01" cy="-234" rx="61.04" ry="18"/>
<text text-anchor="middle" x="231.01" y="-228.57" font-family="Times New Roman,serif" font-size="14.00">_ntoa_format</text>
</g>
<!-- _ntoa_format&#45;&gt;_out_rev -->
<g id="edge4" class="edge">
<title>_ntoa_format&#45;&gt;_out_rev</title>
<path fill="none" stroke="black" d="M258.44,-217.64C276.8,-207.36 301.13,-193.73 320.9,-182.66"/>
<polygon fill="black" stroke="black" points="322.43,-185.81 329.45,-177.87 319.01,-179.71 322.43,-185.81"/>
</g>
<!-- &lt;_out_rev&gt; * -->
<g id="node6" class="node">
<title>&lt;_out_rev&gt; *</title>
<ellipse fill="none" stroke="black" cx="232.01" cy="-162" rx="62.04" ry="18"/>
<text text-anchor="middle" x="232.01" y="-156.57" font-family="Times New Roman,serif" font-size="14.00">&lt;_out_rev&gt; *</text>
</g>
<!-- _ntoa_format&#45;&gt;&lt;_out_rev&gt; * -->
<g id="edge3" class="edge">
<title>_ntoa_format&#45;&gt;&lt;_out_rev&gt; *</title>
<path fill="none" stroke="black" d="M231.26,-215.7C231.36,-208.41 231.48,-199.73 231.6,-191.54"/>
<polygon fill="black" stroke="black" points="235.1,-191.67 231.74,-181.62 228.1,-191.57 235.1,-191.67"/>
</g>
<!-- _ntoa_long -->
<g id="node7" class="node">
<title>_ntoa_long</title>
<ellipse fill="none" stroke="black" cx="609.01" cy="-306" rx="52.56" ry="18"/>
<text text-anchor="middle" x="609.01" y="-300.57" font-family="Times New Roman,serif" font-size="14.00">_ntoa_long</text>
</g>
<!-- _ntoa_long&#45;&gt;_ntoa_format -->
<g id="edge5" class="edge">
<title>_ntoa_long&#45;&gt;_ntoa_format</title>
<path fill="none" stroke="black" d="M562.55,-297.18C482.85,-283.75 326.18,-257.22 301.01,-252 296.46,-251.06 291.76,-250.03 287.05,-248.97"/>
<polygon fill="black" stroke="black" points="288.1,-245.62 277.57,-246.77 286.52,-252.44 288.1,-245.62"/>
</g>
<!-- _ntoa_long_long -->
<g id="node8" class="node">
<title>_ntoa_long_long</title>
<ellipse fill="none" stroke="black" cx="454.01" cy="-378" rx="73.52" ry="18"/>
<text text-anchor="middle" x="454.01" y="-372.57" font-family="Times New Roman,serif" font-size="14.00">_ntoa_long_long</text>
</g>
<!-- _ntoa_long_long&#45;&gt;_ntoa_format -->
<g id="edge6" class="edge">
<title>_ntoa_long_long&#45;&gt;_ntoa_format</title>
<path fill="none" stroke="black" d="M465.13,-359.98C476.33,-340.49 489.75,-308.6 473.01,-288 423.76,-227.38 377.19,-269.22 301.01,-252 296.67,-251.02 292.19,-249.98 287.69,-248.93"/>
<polygon fill="black" stroke="black" points="288.53,-245.53 277.99,-246.63 286.92,-252.34 288.53,-245.53"/>
</g>
<!-- __udivdi3 -->
<g id="node9" class="node">
<title>__udivdi3</title>
<ellipse fill="none" stroke="black" cx="416.01" cy="-306" rx="48.07" ry="18"/>
<text text-anchor="middle" x="416.01" y="-300.57" font-family="Times New Roman,serif" font-size="14.00">__udivdi3</text>
</g>
<!-- _ntoa_long_long&#45;&gt;__udivdi3 -->
<g id="edge7" class="edge">
<title>_ntoa_long_long&#45;&gt;__udivdi3</title>
<path fill="none" stroke="black" d="M444.62,-359.7C440.43,-351.98 435.4,-342.71 430.73,-334.11"/>
<polygon fill="black" stroke="black" points="433.86,-332.55 426.02,-325.43 427.71,-335.89 433.86,-332.55"/>
</g>
<!-- __umoddi3 -->
<g id="node10" class="node">
<title>__umoddi3</title>
<ellipse fill="none" stroke="black" cx="296.01" cy="-306" rx="53.56" ry="18"/>
<text text-anchor="middle" x="296.01" y="-300.57" font-family="Times New Roman,serif" font-size="14.00">__umoddi3</text>
</g>
<!-- _ntoa_long_long&#45;&gt;__umoddi3 -->
<g id="edge8" class="edge">
<title>_ntoa_long_long&#45;&gt;__umoddi3</title>
<path fill="none" stroke="black" d="M419.73,-361.81C395.74,-351.19 363.56,-336.93 338.03,-325.62"/>
<polygon fill="black" stroke="black" points="339.49,-322.43 328.93,-321.58 336.65,-328.83 339.49,-322.43"/>
</g>
<!-- _etoa -->
<g id="node11" class="node">
<title>_etoa</title>
<ellipse fill="none" stroke="black" cx="890.01" cy="-378" rx="31.1" ry="18"/>
<text text-anchor="middle" x="890.01" y="-372.57" font-family="Times New Roman,serif" font-size="14.00">_etoa</text>
</g>
<!-- _etoa&#45;&gt;_ntoa_long -->
<g id="edge12" class="edge">
<title>_etoa&#45;&gt;_ntoa_long</title>
<path fill="none" stroke="black" d="M861.78,-369.97C814.97,-358.31 720.59,-334.8 661.33,-320.03"/>
<polygon fill="black" stroke="black" points="662.35,-316.68 651.8,-317.66 660.66,-323.47 662.35,-316.68"/>
</g>
<!-- __floatsidf -->
<g id="node12" class="node">
<title>__floatsidf</title>
<ellipse fill="none" stroke="black" cx="361.01" cy="-234" rx="51.06" ry="18"/>
<text text-anchor="middle" x="361.01" y="-228.57" font-family="Times New Roman,serif" font-size="14.00">__floatsidf</text>
</g>
<!-- _etoa&#45;&gt;__floatsidf -->
<g id="edge9" class="edge">
<title>_etoa&#45;&gt;__floatsidf</title>
<path fill="none" stroke="black" d="M860.8,-371.32C825.58,-363.73 765.22,-348.35 718.01,-324 694.63,-311.94 695.26,-298.21 671.01,-288 567.54,-244.46 530.81,-275.35 421.01,-252 417.24,-251.2 413.36,-250.29 409.48,-249.32"/>
<polygon fill="black" stroke="black" points="410.61,-246 400.05,-246.86 408.84,-252.78 410.61,-246"/>
</g>
<!-- __divdf3 -->
<g id="node13" class="node">
<title>__divdf3</title>
<ellipse fill="none" stroke="black" cx="1295.01" cy="-306" rx="44.58" ry="18"/>
<text text-anchor="middle" x="1295.01" y="-300.57" font-family="Times New Roman,serif" font-size="14.00">__divdf3</text>
</g>
<!-- _etoa&#45;&gt;__divdf3 -->
<g id="edge10" class="edge">
<title>_etoa&#45;&gt;__divdf3</title>
<path fill="none" stroke="black" d="M919.99,-372.99C978.5,-364.99 1111.88,-345.93 1223.01,-324 1230.72,-322.48 1238.85,-320.71 1246.77,-318.91"/>
<polygon fill="black" stroke="black" points="1247.34,-322.37 1256.28,-316.69 1245.75,-315.55 1247.34,-322.37"/>
</g>
<!-- __muldf3 -->
<g id="node14" class="node">
<title>__muldf3</title>
<ellipse fill="none" stroke="black" cx="998.01" cy="-234" rx="46.57" ry="18"/>
<text text-anchor="middle" x="998.01" y="-228.57" font-family="Times New Roman,serif" font-size="14.00">__muldf3</text>
</g>
<!-- _etoa&#45;&gt;__muldf3 -->
<g id="edge11" class="edge">
<title>_etoa&#45;&gt;__muldf3</title>
<path fill="none" stroke="black" d="M902.19,-360.99C920.81,-336.51 956.51,-289.56 978.69,-260.4"/>
<polygon fill="black" stroke="black" points="981.19,-262.89 984.46,-252.82 975.62,-258.66 981.19,-262.89"/>
</g>
<!-- __gedf2 -->
<g id="node15" class="node">
<title>__gedf2</title>
<ellipse fill="none" stroke="black" cx="472.01" cy="-234" rx="41.58" ry="18"/>
<text text-anchor="middle" x="472.01" y="-228.57" font-family="Times New Roman,serif" font-size="14.00">__gedf2</text>
</g>
<!-- _etoa&#45;&gt;__gedf2 -->
<g id="edge13" class="edge">
<title>_etoa&#45;&gt;__gedf2</title>
<path fill="none" stroke="black" d="M867.68,-364.98C824.72,-341.94 733.46,-293.33 718.01,-288 636.77,-259.96 611.47,-272.51 528.01,-252 523.97,-251.01 519.8,-249.9 515.63,-248.74"/>
<polygon fill="black" stroke="black" points="516.75,-245.42 506.17,-245.99 514.8,-252.14 516.75,-245.42"/>
</g>
<!-- __fixdfsi -->
<g id="node16" class="node">
<title>__fixdfsi</title>
<ellipse fill="none" stroke="black" cx="1107.01" cy="-234" rx="44.08" ry="18"/>
<text text-anchor="middle" x="1107.01" y="-228.57" font-family="Times New Roman,serif" font-size="14.00">__fixdfsi</text>
</g>
<!-- _etoa&#45;&gt;__fixdfsi -->
<g id="edge14" class="edge">
<title>_etoa&#45;&gt;__fixdfsi</title>
<path fill="none" stroke="black" d="M910.04,-363.9C947.77,-339.2 1029.67,-285.61 1075.08,-255.9"/>
<polygon fill="black" stroke="black" points="1076.73,-258.99 1083.19,-250.59 1072.9,-253.14 1076.73,-258.99"/>
</g>
<!-- _ftoa -->
<g id="node17" class="node">
<title>_ftoa</title>
<ellipse fill="none" stroke="black" cx="832.01" cy="-306" rx="30.11" ry="18"/>
<text text-anchor="middle" x="832.01" y="-300.57" font-family="Times New Roman,serif" font-size="14.00">_ftoa</text>
</g>
<!-- _etoa&#45;&gt;_ftoa -->
<g id="edge15" class="edge">
<title>_etoa&#45;&gt;_ftoa</title>
<path fill="none" stroke="black" d="M872.72,-362.83C864.38,-354.15 854.63,-342.77 846.65,-332.55"/>
<polygon fill="black" stroke="black" points="849.64,-330.7 840.84,-324.82 844.05,-334.91 849.64,-330.7"/>
</g>
<!-- __ledf2 -->
<g id="node18" class="node">
<title>__ledf2</title>
<ellipse fill="none" stroke="black" cx="1208.01" cy="-234" rx="39.09" ry="18"/>
<text text-anchor="middle" x="1208.01" y="-228.57" font-family="Times New Roman,serif" font-size="14.00">__ledf2</text>
</g>
<!-- _etoa&#45;&gt;__ledf2 -->
<g id="edge16" class="edge">
<title>_etoa&#45;&gt;__ledf2</title>
<path fill="none" stroke="black" d="M914.37,-366.56C939.03,-355.95 978.24,-339 1012.01,-324 1067.42,-299.38 1131.32,-270.22 1170.7,-252.16"/>
<polygon fill="black" stroke="black" points="1172.12,-255.36 1179.75,-248.01 1169.2,-249 1172.12,-255.36"/>
</g>
<!-- __adddf3 -->
<g id="node19" class="node">
<title>__adddf3</title>
<ellipse fill="none" stroke="black" cx="1411.01" cy="-306" rx="47.07" ry="18"/>
<text text-anchor="middle" x="1411.01" y="-300.57" font-family="Times New Roman,serif" font-size="14.00">__adddf3</text>
</g>
<!-- _etoa&#45;&gt;__adddf3 -->
<g id="edge17" class="edge">
<title>_etoa&#45;&gt;__adddf3</title>
<path fill="none" stroke="black" d="M921.15,-375.05C995.63,-370.03 1189.73,-354.85 1349.01,-324 1353.89,-323.06 1358.94,-321.93 1363.97,-320.7"/>
<polygon fill="black" stroke="black" points="1364.56,-324.17 1373.37,-318.29 1362.82,-317.39 1364.56,-324.17"/>
</g>
<!-- __subdf3 -->
<g id="node20" class="node">
<title>__subdf3</title>
<ellipse fill="none" stroke="black" cx="887.01" cy="-234" rx="46.57" ry="18"/>
<text text-anchor="middle" x="887.01" y="-228.57" font-family="Times New Roman,serif" font-size="14.00">__subdf3</text>
</g>
<!-- _etoa&#45;&gt;__subdf3 -->
<g id="edge18" class="edge">
<title>_etoa&#45;&gt;__subdf3</title>
<path fill="none" stroke="black" d="M889.64,-359.59C889.14,-335.61 888.22,-292.14 887.61,-263.42"/>
<polygon fill="black" stroke="black" points="891.11,-263.55 887.4,-253.62 884.12,-263.7 891.11,-263.55"/>
</g>
<!-- __eqdf2 -->
<g id="node21" class="node">
<title>__eqdf2</title>
<ellipse fill="none" stroke="black" cx="1307.01" cy="-234" rx="42.08" ry="18"/>
<text text-anchor="middle" x="1307.01" y="-228.57" font-family="Times New Roman,serif" font-size="14.00">__eqdf2</text>
</g>
<!-- _etoa&#45;&gt;__eqdf2 -->
<g id="edge19" class="edge">
<title>_etoa&#45;&gt;__eqdf2</title>
<path fill="none" stroke="black" d="M917.42,-369.09C951.65,-359.09 1011.93,-341.13 1063.01,-324 1134.8,-299.93 1217.39,-269.14 1265.73,-250.81"/>
<polygon fill="black" stroke="black" points="1266.86,-254.12 1274.96,-247.3 1264.37,-247.58 1266.86,-254.12"/>
</g>
<!-- __clzsi2 -->
<g id="node36" class="node">
<title>__clzsi2</title>
<ellipse fill="none" stroke="black" cx="942.01" cy="-162" rx="41.58" ry="18"/>
<text text-anchor="middle" x="942.01" y="-156.57" font-family="Times New Roman,serif" font-size="14.00">__clzsi2</text>
</g>
<!-- __floatsidf&#45;&gt;__clzsi2 -->
<g id="edge52" class="edge">
<title>__floatsidf&#45;&gt;__clzsi2</title>
<path fill="none" stroke="black" d="M398.22,-221.37C405.71,-219.34 413.57,-217.42 421.01,-216 590.32,-183.66 794.61,-170.15 889.2,-165.32"/>
<polygon fill="black" stroke="black" points="889.13,-168.83 898.94,-164.84 888.78,-161.84 889.13,-168.83"/>
</g>
<!-- __divdf3&#45;&gt;__clzsi2 -->
<g id="edge49" class="edge">
<title>__divdf3&#45;&gt;__clzsi2</title>
<path fill="none" stroke="black" d="M1317.86,-290.43C1343.69,-272.21 1379.53,-240.44 1358.01,-216 1334.33,-189.11 1101.05,-172.23 994.55,-165.87"/>
<polygon fill="black" stroke="black" points="994.82,-162.38 984.63,-165.29 994.41,-169.37 994.82,-162.38"/>
</g>
<!-- __muldf3&#45;&gt;__clzsi2 -->
<g id="edge50" class="edge">
<title>__muldf3&#45;&gt;__clzsi2</title>
<path fill="none" stroke="black" d="M984.74,-216.41C978.04,-208.04 969.78,-197.71 962.31,-188.37"/>
<polygon fill="black" stroke="black" points="965.11,-186.27 956.13,-180.65 959.65,-190.65 965.11,-186.27"/>
</g>
<!-- _ftoa&#45;&gt;_out_rev -->
<g id="edge20" class="edge">
<title>_ftoa&#45;&gt;_out_rev</title>
<path fill="none" stroke="black" d="M805.15,-297.57C793.21,-294.41 778.96,-290.8 766.01,-288 675.59,-268.45 643.65,-293.57 561.01,-252 540.23,-241.54 543.05,-227.82 523.01,-216 486.88,-194.69 441.21,-180.96 406.77,-172.83"/>
<polygon fill="black" stroke="black" points="407.55,-169.41 397.02,-170.61 406,-176.24 407.55,-169.41"/>
</g>
<!-- _ftoa&#45;&gt;_etoa -->
<g id="edge25" class="edge">
<title>_ftoa&#45;&gt;_etoa</title>
<path fill="none" stroke="black" d="M849.24,-321.11C857.6,-329.8 867.37,-341.21 875.36,-351.45"/>
<polygon fill="black" stroke="black" points="872.39,-353.31 881.19,-359.2 877.98,-349.11 872.39,-353.31"/>
</g>
<!-- _ftoa&#45;&gt;__floatsidf -->
<g id="edge21" class="edge">
<title>_ftoa&#45;&gt;__floatsidf</title>
<path fill="none" stroke="black" d="M802.99,-300.45C779.97,-296.89 746.96,-291.91 718.01,-288 586.24,-270.19 551.37,-278.2 421.01,-252 417.23,-251.24 413.35,-250.36 409.46,-249.42"/>
<polygon fill="black" stroke="black" points="410.58,-246.09 400.02,-246.98 408.83,-252.87 410.58,-246.09"/>
</g>
<!-- _ftoa&#45;&gt;__muldf3 -->
<g id="edge22" class="edge">
<title>_ftoa&#45;&gt;__muldf3</title>
<path fill="none" stroke="black" d="M856.15,-294.82C882.57,-283.68 925.37,-265.63 957.07,-252.27"/>
<polygon fill="black" stroke="black" points="958.1,-255.63 965.95,-248.52 955.38,-249.18 958.1,-255.63"/>
</g>
<!-- _ftoa&#45;&gt;__gedf2 -->
<g id="edge24" class="edge">
<title>_ftoa&#45;&gt;__gedf2</title>
<path fill="none" stroke="black" d="M806.21,-296.12C797.07,-293.21 786.66,-290.18 777.01,-288 667.93,-263.41 637.15,-276.31 528.01,-252 523.9,-251.08 519.65,-250.02 515.42,-248.88"/>
<polygon fill="black" stroke="black" points="516.39,-245.52 505.82,-246.14 514.48,-252.25 516.39,-245.52"/>
</g>
<!-- _ftoa&#45;&gt;__fixdfsi -->
<g id="edge26" class="edge">
<title>_ftoa&#45;&gt;__fixdfsi</title>
<path fill="none" stroke="black" d="M860.22,-298.99C902.56,-289.8 984.93,-271.29 1054.01,-252 1056.78,-251.23 1059.62,-250.4 1062.48,-249.55"/>
<polygon fill="black" stroke="black" points="1063.5,-252.9 1072.03,-246.62 1061.45,-246.21 1063.5,-252.9"/>
</g>
<!-- _ftoa&#45;&gt;__ledf2 -->
<g id="edge27" class="edge">
<title>_ftoa&#45;&gt;__ledf2</title>
<path fill="none" stroke="black" d="M861.78,-302.01C919.81,-295.78 1051.87,-279.65 1160.01,-252 1162.61,-251.33 1165.27,-250.59 1167.94,-249.79"/>
<polygon fill="black" stroke="black" points="1168.94,-253.14 1177.38,-246.74 1166.79,-246.48 1168.94,-253.14"/>
</g>
<!-- _ftoa&#45;&gt;__subdf3 -->
<g id="edge28" class="edge">
<title>_ftoa&#45;&gt;__subdf3</title>
<path fill="none" stroke="black" d="M844.49,-289.12C851.22,-280.56 859.67,-269.8 867.26,-260.13"/>
<polygon fill="black" stroke="black" points="869.84,-262.52 873.26,-252.5 864.33,-258.2 869.84,-262.52"/>
</g>
<!-- _ftoa&#45;&gt;__eqdf2 -->
<g id="edge30" class="edge">
<title>_ftoa&#45;&gt;__eqdf2</title>
<path fill="none" stroke="black" d="M862.18,-303.28C932.14,-298.85 1110.59,-284.98 1256.01,-252 1258.94,-251.34 1261.94,-250.57 1264.94,-249.74"/>
<polygon fill="black" stroke="black" points="1265.7,-253.16 1274.28,-246.94 1263.69,-246.46 1265.7,-253.16"/>
</g>
<!-- __fixunsdfsi -->
<g id="node22" class="node">
<title>__fixunsdfsi</title>
<ellipse fill="none" stroke="black" cx="765.01" cy="-234" rx="57.05" ry="18"/>
<text text-anchor="middle" x="765.01" y="-228.57" font-family="Times New Roman,serif" font-size="14.00">__fixunsdfsi</text>
</g>
<!-- _ftoa&#45;&gt;__fixunsdfsi -->
<g id="edge23" class="edge">
<title>_ftoa&#45;&gt;__fixunsdfsi</title>
<path fill="none" stroke="black" d="M817.47,-289.81C809.05,-281.02 798.25,-269.73 788.64,-259.69"/>
<polygon fill="black" stroke="black" points="791.41,-257.53 781.97,-252.72 786.36,-262.37 791.41,-257.53"/>
</g>
<!-- __floatunsidf -->
<g id="node23" class="node">
<title>__floatunsidf</title>
<ellipse fill="none" stroke="black" cx="630.01" cy="-234" rx="60.05" ry="18"/>
<text text-anchor="middle" x="630.01" y="-228.57" font-family="Times New Roman,serif" font-size="14.00">__floatunsidf</text>
</g>
<!-- _ftoa&#45;&gt;__floatunsidf -->
<g id="edge29" class="edge">
<title>_ftoa&#45;&gt;__floatunsidf</title>
<path fill="none" stroke="black" d="M806.43,-296.13C774.43,-285.05 718.98,-265.83 678.77,-251.9"/>
<polygon fill="black" stroke="black" points="680.15,-248.67 669.55,-248.7 677.86,-255.29 680.15,-248.67"/>
</g>
<!-- __adddf3&#45;&gt;__clzsi2 -->
<g id="edge48" class="edge">
<title>__adddf3&#45;&gt;__clzsi2</title>
<path fill="none" stroke="black" d="M1409.22,-287.82C1406.09,-267.23 1397.63,-233.34 1375.01,-216 1316.63,-171.24 1097.51,-163.89 995.23,-162.95"/>
<polygon fill="black" stroke="black" points="995.47,-159.45 985.45,-162.88 995.42,-166.45 995.47,-159.45"/>
</g>
<!-- __subdf3&#45;&gt;__clzsi2 -->
<g id="edge51" class="edge">
<title>__subdf3&#45;&gt;__clzsi2</title>
<path fill="none" stroke="black" d="M900.04,-216.41C906.62,-208.04 914.74,-197.71 922.08,-188.37"/>
<polygon fill="black" stroke="black" points="924.71,-190.69 928.13,-180.66 919.2,-186.36 924.71,-190.69"/>
</g>
<!-- __floatunsidf&#45;&gt;__clzsi2 -->
<g id="edge53" class="edge">
<title>__floatunsidf&#45;&gt;__clzsi2</title>
<path fill="none" stroke="black" d="M674.88,-221.76C682.91,-219.8 691.2,-217.81 699.01,-216 766.57,-200.31 845.01,-183.45 894.09,-173.06"/>
<polygon fill="black" stroke="black" points="894.76,-176.49 903.82,-171 893.31,-169.64 894.76,-176.49"/>
</g>
<!-- _vsnprintf -->
<g id="node25" class="node">
<title>_vsnprintf</title>
<ellipse fill="none" stroke="black" cx="609.01" cy="-450" rx="48.57" ry="18"/>
<text text-anchor="middle" x="609.01" y="-444.57" font-family="Times New Roman,serif" font-size="14.00">_vsnprintf</text>
</g>
<!-- _vsnprintf&#45;&gt;_out_char -->
<g id="edge33" class="edge">
<title>_vsnprintf&#45;&gt;_out_char</title>
<path fill="none" stroke="black" d="M562.09,-444.81C443.67,-432.95 142.01,-394.18 142.01,-307 142.01,-307 142.01,-307 142.01,-233 142.01,-192.55 137.52,-176.93 161.01,-144 172.07,-128.49 189.23,-116.69 205.46,-108.21"/>
<polygon fill="black" stroke="black" points="206.58,-111.56 214.03,-104.02 203.51,-105.27 206.58,-111.56"/>
</g>
<!-- _vsnprintf&#45;&gt;_ntoa_long -->
<g id="edge34" class="edge">
<title>_vsnprintf&#45;&gt;_ntoa_long</title>
<path fill="none" stroke="black" d="M609.01,-431.59C609.01,-407.61 609.01,-364.14 609.01,-335.42"/>
<polygon fill="black" stroke="black" points="612.51,-335.62 609.01,-325.62 605.51,-335.62 612.51,-335.62"/>
</g>
<!-- _vsnprintf&#45;&gt;_ntoa_long_long -->
<g id="edge32" class="edge">
<title>_vsnprintf&#45;&gt;_ntoa_long_long</title>
<path fill="none" stroke="black" d="M579.12,-435.5C556.24,-425.17 524.31,-410.75 498.43,-399.06"/>
<polygon fill="black" stroke="black" points="500.05,-395.95 489.5,-395.03 497.17,-402.33 500.05,-395.95"/>
</g>
<!-- _vsnprintf&#45;&gt;_etoa -->
<g id="edge35" class="edge">
<title>_vsnprintf&#45;&gt;_etoa</title>
<path fill="none" stroke="black" d="M648.67,-439.12C702.23,-425.78 797.11,-402.14 850.56,-388.83"/>
<polygon fill="black" stroke="black" points="851.3,-392.25 860.15,-386.44 849.6,-385.46 851.3,-392.25"/>
</g>
<!-- _vsnprintf&#45;&gt;_ftoa -->
<g id="edge36" class="edge">
<title>_vsnprintf&#45;&gt;_ftoa</title>
<path fill="none" stroke="black" d="M632.45,-434.07C673.31,-408.06 757.48,-354.46 802.34,-325.9"/>
<polygon fill="black" stroke="black" points="803.97,-329 810.53,-320.68 800.21,-323.1 803.97,-329"/>
</g>
<!-- fputc -->
<g id="node27" class="node">
<title>fputc</title>
<ellipse fill="none" stroke="black" cx="78.01" cy="-522" rx="30.11" ry="18"/>
<text text-anchor="middle" x="78.01" y="-516.58" font-family="Times New Roman,serif" font-size="14.00">fputc</text>
</g>
<!-- puts&#45;&gt;fputc -->
<g id="edge37" class="edge">
<title>puts&#45;&gt;fputc</title>
<path fill="none" stroke="black" d="M168.02,-580.81C151.3,-570.07 126.67,-554.25 107.4,-541.88"/>
<polygon fill="black" stroke="black" points="109.46,-539.04 99.16,-536.58 105.68,-544.93 109.46,-539.04"/>
</g>
<!-- &lt;ck_uart_putc&gt; * -->
<g id="node34" class="node">
<title>&lt;ck_uart_putc&gt; *</title>
<ellipse fill="none" stroke="black" cx="78.01" cy="-450" rx="78.01" ry="18"/>
<text text-anchor="middle" x="78.01" y="-444.57" font-family="Times New Roman,serif" font-size="14.00">&lt;ck_uart_putc&gt; *</text>
</g>
<!-- fputc&#45;&gt;&lt;ck_uart_putc&gt; * -->
<g id="edge43" class="edge">
<title>fputc&#45;&gt;&lt;ck_uart_putc&gt; *</title>
<path fill="none" stroke="black" d="M78.01,-503.7C78.01,-496.41 78.01,-487.73 78.01,-479.54"/>
<polygon fill="black" stroke="black" points="81.51,-479.62 78.01,-469.62 74.51,-479.62 81.51,-479.62"/>
</g>
<!-- printf -->
<g id="node28" class="node">
<title>printf</title>
<ellipse fill="none" stroke="black" cx="609.01" cy="-522" rx="30.61" ry="18"/>
<text text-anchor="middle" x="609.01" y="-516.58" font-family="Times New Roman,serif" font-size="14.00">printf</text>
</g>
<!-- printf&#45;&gt;_vsnprintf -->
<g id="edge38" class="edge">
<title>printf&#45;&gt;_vsnprintf</title>
<path fill="none" stroke="black" d="M609.01,-503.7C609.01,-496.41 609.01,-487.73 609.01,-479.54"/>
<polygon fill="black" stroke="black" points="612.51,-479.62 609.01,-469.62 605.51,-479.62 612.51,-479.62"/>
</g>
<!-- ck_uart_set_wordsize -->
<g id="node30" class="node">
<title>ck_uart_set_wordsize</title>
<ellipse fill="none" stroke="black" cx="396.01" cy="-522" rx="92.48" ry="18"/>
<text text-anchor="middle" x="396.01" y="-516.58" font-family="Times New Roman,serif" font-size="14.00">ck_uart_set_wordsize</text>
</g>
<!-- ck_uart_init&#45;&gt;ck_uart_set_wordsize -->
<g id="edge39" class="edge">
<title>ck_uart_init&#45;&gt;ck_uart_set_wordsize</title>
<path fill="none" stroke="black" d="M396.01,-575.7C396.01,-568.41 396.01,-559.73 396.01,-551.54"/>
<polygon fill="black" stroke="black" points="399.51,-551.62 396.01,-541.62 392.51,-551.62 399.51,-551.62"/>
</g>
<!-- ck_uart_set_parity -->
<g id="node31" class="node">
<title>ck_uart_set_parity</title>
<ellipse fill="none" stroke="black" cx="206.01" cy="-522" rx="80.01" ry="18"/>
<text text-anchor="middle" x="206.01" y="-516.58" font-family="Times New Roman,serif" font-size="14.00">ck_uart_set_parity</text>
</g>
<!-- ck_uart_init&#45;&gt;ck_uart_set_parity -->
<g id="edge40" class="edge">
<title>ck_uart_init&#45;&gt;ck_uart_set_parity</title>
<path fill="none" stroke="black" d="M360.72,-580C331.6,-569.27 289.9,-553.91 257.12,-541.83"/>
<polygon fill="black" stroke="black" points="258.4,-538.57 247.8,-538.4 255.98,-545.14 258.4,-538.57"/>
</g>
<!-- benchmark&#45;&gt;printf -->
<g id="edge42" class="edge">
<title>benchmark&#45;&gt;printf</title>
<path fill="none" stroke="black" d="M544.84,-577.12C556.24,-567.51 570.92,-555.13 583.36,-544.63"/>
<polygon fill="black" stroke="black" points="585.4,-547.49 590.79,-538.37 580.89,-542.14 585.4,-547.49"/>
</g>
<!-- icrc -->
<g id="node33" class="node">
<title>icrc</title>
<ellipse fill="none" stroke="black" cx="533.01" cy="-522" rx="27" ry="18"/>
<text text-anchor="middle" x="533.01" y="-516.58" font-family="Times New Roman,serif" font-size="14.00">icrc</text>
</g>
<!-- benchmark&#45;&gt;icrc -->
<g id="edge41" class="edge">
<title>benchmark&#45;&gt;icrc</title>
<path fill="none" stroke="black" d="M527.74,-575.7C528.47,-568.41 529.34,-559.73 530.16,-551.54"/>
<polygon fill="black" stroke="black" points="533.64,-551.91 531.15,-541.61 526.67,-551.21 533.64,-551.91"/>
</g>
</g>
</svg>
