<?xml version="1.0" encoding="UTF-8" standalone="no"?>
<!DOCTYPE svg PUBLIC "-//W3C//DTD SVG 1.1//EN"
 "http://www.w3.org/Graphics/SVG/1.1/DTD/svg11.dtd">
<!-- Generated by graphviz version 6.0.2 (20221011.1828)
 -->
<!-- Pages: 1 -->
<svg width="1250pt" height="548pt"
 viewBox="0.00 0.00 1250.24 548.00" xmlns="http://www.w3.org/2000/svg" xmlns:xlink="http://www.w3.org/1999/xlink">
<g id="graph0" class="graph" transform="scale(1 1) rotate(0) translate(4 544)">
<polygon fill="white" stroke="none" points="-4,4 -4,-544 1246.24,-544 1246.24,4 -4,4"/>
<!-- __to_main -->
<g id="node1" class="node">
<title>__to_main</title>
<ellipse fill="none" stroke="black" cx="702.15" cy="-522" rx="50.09" ry="18"/>
<text text-anchor="middle" x="702.15" y="-518.3" font-family="Times New Roman,serif" font-size="14.00">__to_main</text>
</g>
<!-- main -->
<g id="node2" class="node">
<title>main</title>
<ellipse fill="none" stroke="black" cx="702.15" cy="-450" rx="27.9" ry="18"/>
<text text-anchor="middle" x="702.15" y="-446.3" font-family="Times New Roman,serif" font-size="14.00">main</text>
</g>
<!-- __to_main&#45;&gt;main -->
<g id="edge1" class="edge">
<title>__to_main&#45;&gt;main</title>
<path fill="none" stroke="black" d="M702.15,-503.7C702.15,-495.98 702.15,-486.71 702.15,-478.11"/>
<polygon fill="black" stroke="black" points="705.65,-478.1 702.15,-468.1 698.65,-478.1 705.65,-478.1"/>
</g>
<!-- func1 -->
<g id="node5" class="node">
<title>func1</title>
<ellipse fill="none" stroke="black" cx="357.15" cy="-378" rx="31.4" ry="18"/>
<text text-anchor="middle" x="357.15" y="-374.3" font-family="Times New Roman,serif" font-size="14.00">func1</text>
</g>
<!-- main&#45;&gt;func1 -->
<g id="edge4" class="edge">
<title>main&#45;&gt;func1</title>
<path fill="none" stroke="black" d="M675.93,-443.68C615.68,-431.46 467.08,-401.31 396.1,-386.9"/>
<polygon fill="black" stroke="black" points="396.71,-383.46 386.21,-384.9 395.32,-390.32 396.71,-383.46"/>
</g>
<!-- ck_uart_init -->
<g id="node7" class="node">
<title>ck_uart_init</title>
<ellipse fill="none" stroke="black" cx="573.15" cy="-378" rx="53.89" ry="18"/>
<text text-anchor="middle" x="573.15" y="-374.3" font-family="Times New Roman,serif" font-size="14.00">ck_uart_init</text>
</g>
<!-- main&#45;&gt;ck_uart_init -->
<g id="edge5" class="edge">
<title>main&#45;&gt;ck_uart_init</title>
<path fill="none" stroke="black" d="M681.42,-437.75C661.93,-427.18 632.34,-411.12 609.02,-398.46"/>
<polygon fill="black" stroke="black" points="610.56,-395.32 600.1,-393.63 607.22,-401.47 610.56,-395.32"/>
</g>
<!-- printf -->
<g id="node8" class="node">
<title>printf</title>
<ellipse fill="none" stroke="black" cx="702.15" cy="-378" rx="30.59" ry="18"/>
<text text-anchor="middle" x="702.15" y="-374.3" font-family="Times New Roman,serif" font-size="14.00">printf</text>
</g>
<!-- main&#45;&gt;printf -->
<g id="edge6" class="edge">
<title>main&#45;&gt;printf</title>
<path fill="none" stroke="black" d="M702.15,-431.7C702.15,-423.98 702.15,-414.71 702.15,-406.11"/>
<polygon fill="black" stroke="black" points="705.65,-406.1 702.15,-396.1 698.65,-406.1 705.65,-406.1"/>
</g>
<!-- puts -->
<g id="node9" class="node">
<title>puts</title>
<ellipse fill="none" stroke="black" cx="778.15" cy="-378" rx="27" ry="18"/>
<text text-anchor="middle" x="778.15" y="-374.3" font-family="Times New Roman,serif" font-size="14.00">puts</text>
</g>
<!-- main&#45;&gt;puts -->
<g id="edge7" class="edge">
<title>main&#45;&gt;puts</title>
<path fill="none" stroke="black" d="M717.53,-434.83C728.34,-424.87 743,-411.37 755.2,-400.14"/>
<polygon fill="black" stroke="black" points="757.8,-402.49 762.79,-393.14 753.06,-397.34 757.8,-402.49"/>
</g>
<!-- ck_uart_open -->
<g id="node10" class="node">
<title>ck_uart_open</title>
<ellipse fill="none" stroke="black" cx="884.15" cy="-378" rx="61.19" ry="18"/>
<text text-anchor="middle" x="884.15" y="-374.3" font-family="Times New Roman,serif" font-size="14.00">ck_uart_open</text>
</g>
<!-- main&#45;&gt;ck_uart_open -->
<g id="edge8" class="edge">
<title>main&#45;&gt;ck_uart_open</title>
<path fill="none" stroke="black" d="M725.57,-439.99C754.09,-429.02 802.9,-410.25 838.85,-396.42"/>
<polygon fill="black" stroke="black" points="840.55,-399.52 848.62,-392.66 838.03,-392.99 840.55,-399.52"/>
</g>
<!-- fputc -->
<g id="node3" class="node">
<title>fputc</title>
<ellipse fill="none" stroke="black" cx="920.15" cy="-306" rx="29.8" ry="18"/>
<text text-anchor="middle" x="920.15" y="-302.3" font-family="Times New Roman,serif" font-size="14.00">fputc</text>
</g>
<!-- &lt;ck_uart_putc&gt; * -->
<g id="node4" class="node">
<title>&lt;ck_uart_putc&gt; *</title>
<ellipse fill="none" stroke="black" cx="1014.15" cy="-234" rx="76.89" ry="18"/>
<text text-anchor="middle" x="1014.15" y="-230.3" font-family="Times New Roman,serif" font-size="14.00">&lt;ck_uart_putc&gt; *</text>
</g>
<!-- fputc&#45;&gt;&lt;ck_uart_putc&gt; * -->
<g id="edge2" class="edge">
<title>fputc&#45;&gt;&lt;ck_uart_putc&gt; *</title>
<path fill="none" stroke="black" d="M938.27,-291.5C951.23,-281.85 968.98,-268.63 984.06,-257.41"/>
<polygon fill="black" stroke="black" points="986.18,-260.19 992.11,-251.41 982,-254.58 986.18,-260.19"/>
</g>
<!-- &lt;puts&gt; * -->
<g id="node6" class="node">
<title>&lt;puts&gt; *</title>
<ellipse fill="none" stroke="black" cx="244.15" cy="-306" rx="44.39" ry="18"/>
<text text-anchor="middle" x="244.15" y="-302.3" font-family="Times New Roman,serif" font-size="14.00">&lt;puts&gt; *</text>
</g>
<!-- func1&#45;&gt;&lt;puts&gt; * -->
<g id="edge3" class="edge">
<title>func1&#45;&gt;&lt;puts&gt; *</title>
<path fill="none" stroke="black" d="M336.68,-364.32C319.81,-353.87 295.57,-338.85 276.13,-326.81"/>
<polygon fill="black" stroke="black" points="277.92,-323.81 267.58,-321.52 274.24,-329.76 277.92,-323.81"/>
</g>
<!-- ck_uart_set_parity -->
<g id="node32" class="node">
<title>ck_uart_set_parity</title>
<ellipse fill="none" stroke="black" cx="385.15" cy="-306" rx="78.79" ry="18"/>
<text text-anchor="middle" x="385.15" y="-302.3" font-family="Times New Roman,serif" font-size="14.00">ck_uart_set_parity</text>
</g>
<!-- ck_uart_init&#45;&gt;ck_uart_set_parity -->
<g id="edge43" class="edge">
<title>ck_uart_init&#45;&gt;ck_uart_set_parity</title>
<path fill="none" stroke="black" d="M538.23,-364C508.84,-353.06 466.51,-337.3 433.81,-325.12"/>
<polygon fill="black" stroke="black" points="435.02,-321.84 424.43,-321.63 432.58,-328.4 435.02,-321.84"/>
</g>
<!-- ck_uart_set_wordsize -->
<g id="node33" class="node">
<title>ck_uart_set_wordsize</title>
<ellipse fill="none" stroke="black" cx="573.15" cy="-306" rx="90.98" ry="18"/>
<text text-anchor="middle" x="573.15" y="-302.3" font-family="Times New Roman,serif" font-size="14.00">ck_uart_set_wordsize</text>
</g>
<!-- ck_uart_init&#45;&gt;ck_uart_set_wordsize -->
<g id="edge44" class="edge">
<title>ck_uart_init&#45;&gt;ck_uart_set_wordsize</title>
<path fill="none" stroke="black" d="M573.15,-359.7C573.15,-351.98 573.15,-342.71 573.15,-334.11"/>
<polygon fill="black" stroke="black" points="576.65,-334.1 573.15,-324.1 569.65,-334.1 576.65,-334.1"/>
</g>
<!-- _vsnprintf -->
<g id="node31" class="node">
<title>_vsnprintf</title>
<ellipse fill="none" stroke="black" cx="730.15" cy="-306" rx="48.19" ry="18"/>
<text text-anchor="middle" x="730.15" y="-302.3" font-family="Times New Roman,serif" font-size="14.00">_vsnprintf</text>
</g>
<!-- printf&#45;&gt;_vsnprintf -->
<g id="edge42" class="edge">
<title>printf&#45;&gt;_vsnprintf</title>
<path fill="none" stroke="black" d="M708.78,-360.41C712.01,-352.34 715.97,-342.43 719.6,-333.35"/>
<polygon fill="black" stroke="black" points="722.9,-334.54 723.36,-323.96 716.4,-331.94 722.9,-334.54"/>
</g>
<!-- puts&#45;&gt;fputc -->
<g id="edge41" class="edge">
<title>puts&#45;&gt;fputc</title>
<path fill="none" stroke="black" d="M799.4,-366.52C823.07,-354.85 861.57,-335.88 888.72,-322.49"/>
<polygon fill="black" stroke="black" points="890.38,-325.57 897.8,-318.01 887.29,-319.3 890.38,-325.57"/>
</g>
<!-- _ntoa_format -->
<g id="node11" class="node">
<title>_ntoa_format</title>
<ellipse fill="none" stroke="black" cx="1181.15" cy="-90" rx="59.59" ry="18"/>
<text text-anchor="middle" x="1181.15" y="-86.3" font-family="Times New Roman,serif" font-size="14.00">_ntoa_format</text>
</g>
<!-- _out_rev -->
<g id="node12" class="node">
<title>_out_rev</title>
<ellipse fill="none" stroke="black" cx="978.15" cy="-18" rx="43.59" ry="18"/>
<text text-anchor="middle" x="978.15" y="-14.3" font-family="Times New Roman,serif" font-size="14.00">_out_rev</text>
</g>
<!-- _ntoa_format&#45;&gt;_out_rev -->
<g id="edge9" class="edge">
<title>_ntoa_format&#45;&gt;_out_rev</title>
<path fill="none" stroke="black" d="M1143.44,-76C1108.54,-63.96 1056.72,-46.09 1020.43,-33.58"/>
<polygon fill="black" stroke="black" points="1021.22,-30.15 1010.63,-30.2 1018.94,-36.77 1021.22,-30.15"/>
</g>
<!-- &lt;_out_rev&gt; * -->
<g id="node13" class="node">
<title>&lt;_out_rev&gt; *</title>
<ellipse fill="none" stroke="black" cx="1181.15" cy="-18" rx="61.19" ry="18"/>
<text text-anchor="middle" x="1181.15" y="-14.3" font-family="Times New Roman,serif" font-size="14.00">&lt;_out_rev&gt; *</text>
</g>
<!-- _ntoa_format&#45;&gt;&lt;_out_rev&gt; * -->
<g id="edge10" class="edge">
<title>_ntoa_format&#45;&gt;&lt;_out_rev&gt; *</title>
<path fill="none" stroke="black" d="M1181.15,-71.7C1181.15,-63.98 1181.15,-54.71 1181.15,-46.11"/>
<polygon fill="black" stroke="black" points="1184.65,-46.1 1181.15,-36.1 1177.65,-46.1 1184.65,-46.1"/>
</g>
<!-- _ntoa_long -->
<g id="node14" class="node">
<title>_ntoa_long</title>
<ellipse fill="none" stroke="black" cx="730.15" cy="-162" rx="51.99" ry="18"/>
<text text-anchor="middle" x="730.15" y="-158.3" font-family="Times New Roman,serif" font-size="14.00">_ntoa_long</text>
</g>
<!-- _ntoa_long&#45;&gt;_ntoa_format -->
<g id="edge11" class="edge">
<title>_ntoa_long&#45;&gt;_ntoa_format</title>
<path fill="none" stroke="black" d="M767.67,-149.53C775.38,-147.46 783.48,-145.49 791.15,-144 932.51,-116.58 971.42,-133.52 1113.15,-108 1118.11,-107.11 1123.25,-106.06 1128.37,-104.92"/>
<polygon fill="black" stroke="black" points="1129.21,-108.32 1138.17,-102.67 1127.64,-101.5 1129.21,-108.32"/>
</g>
<!-- _ntoa_long_long -->
<g id="node15" class="node">
<title>_ntoa_long_long</title>
<ellipse fill="none" stroke="black" cx="847.15" cy="-234" rx="72.29" ry="18"/>
<text text-anchor="middle" x="847.15" y="-230.3" font-family="Times New Roman,serif" font-size="14.00">_ntoa_long_long</text>
</g>
<!-- _ntoa_long_long&#45;&gt;_ntoa_format -->
<g id="edge13" class="edge">
<title>_ntoa_long_long&#45;&gt;_ntoa_format</title>
<path fill="none" stroke="black" d="M898.71,-221.29C935.33,-212.14 985.23,-197.98 1027.15,-180 1071.57,-160.94 1119.25,-131.91 1149.59,-112.23"/>
<polygon fill="black" stroke="black" points="1151.6,-115.1 1158.05,-106.7 1147.77,-109.24 1151.6,-115.1"/>
</g>
<!-- __udivdi3 -->
<g id="node16" class="node">
<title>__udivdi3</title>
<ellipse fill="none" stroke="black" cx="847.15" cy="-162" rx="47.39" ry="18"/>
<text text-anchor="middle" x="847.15" y="-158.3" font-family="Times New Roman,serif" font-size="14.00">__udivdi3</text>
</g>
<!-- _ntoa_long_long&#45;&gt;__udivdi3 -->
<g id="edge12" class="edge">
<title>_ntoa_long_long&#45;&gt;__udivdi3</title>
<path fill="none" stroke="black" d="M847.15,-215.7C847.15,-207.98 847.15,-198.71 847.15,-190.11"/>
<polygon fill="black" stroke="black" points="850.65,-190.1 847.15,-180.1 843.65,-190.1 850.65,-190.1"/>
</g>
<!-- __umoddi3 -->
<g id="node17" class="node">
<title>__umoddi3</title>
<ellipse fill="none" stroke="black" cx="965.15" cy="-162" rx="52.79" ry="18"/>
<text text-anchor="middle" x="965.15" y="-158.3" font-family="Times New Roman,serif" font-size="14.00">__umoddi3</text>
</g>
<!-- _ntoa_long_long&#45;&gt;__umoddi3 -->
<g id="edge14" class="edge">
<title>_ntoa_long_long&#45;&gt;__umoddi3</title>
<path fill="none" stroke="black" d="M873.92,-217.12C890.83,-207.09 912.83,-194.03 930.99,-183.26"/>
<polygon fill="black" stroke="black" points="933.27,-185.98 940.09,-177.86 929.7,-179.96 933.27,-185.98"/>
</g>
<!-- _etoa -->
<g id="node18" class="node">
<title>_etoa</title>
<ellipse fill="none" stroke="black" cx="496.15" cy="-234" rx="30.59" ry="18"/>
<text text-anchor="middle" x="496.15" y="-230.3" font-family="Times New Roman,serif" font-size="14.00">_etoa</text>
</g>
<!-- _etoa&#45;&gt;_ntoa_long -->
<g id="edge25" class="edge">
<title>_etoa&#45;&gt;_ntoa_long</title>
<path fill="none" stroke="black" d="M522.99,-224.97C561.77,-213.37 634.07,-191.74 682.16,-177.35"/>
<polygon fill="black" stroke="black" points="683.46,-180.62 692.04,-174.4 681.45,-173.91 683.46,-180.62"/>
</g>
<!-- __ledf2 -->
<g id="node19" class="node">
<title>__ledf2</title>
<ellipse fill="none" stroke="black" cx="964.15" cy="-90" rx="38.19" ry="18"/>
<text text-anchor="middle" x="964.15" y="-86.3" font-family="Times New Roman,serif" font-size="14.00">__ledf2</text>
</g>
<!-- _etoa&#45;&gt;__ledf2 -->
<g id="edge15" class="edge">
<title>_etoa&#45;&gt;__ledf2</title>
<path fill="none" stroke="black" d="M519.23,-222C539.37,-212.04 569.05,-196.43 593.15,-180 613.74,-165.96 613.32,-154.01 636.15,-144 749.43,-94.31 791.5,-135.34 912.15,-108 916.31,-107.06 920.62,-105.92 924.9,-104.68"/>
<polygon fill="black" stroke="black" points="926.18,-107.95 934.71,-101.68 924.13,-101.26 926.18,-107.95"/>
</g>
<!-- __divdf3 -->
<g id="node20" class="node">
<title>__divdf3</title>
<ellipse fill="none" stroke="black" cx="155.15" cy="-162" rx="44.39" ry="18"/>
<text text-anchor="middle" x="155.15" y="-158.3" font-family="Times New Roman,serif" font-size="14.00">__divdf3</text>
</g>
<!-- _etoa&#45;&gt;__divdf3 -->
<g id="edge16" class="edge">
<title>_etoa&#45;&gt;__divdf3</title>
<path fill="none" stroke="black" d="M467.02,-228.53C415.49,-220.41 305.02,-202.01 213.15,-180 208.54,-178.9 203.76,-177.65 199,-176.36"/>
<polygon fill="black" stroke="black" points="199.92,-172.98 189.34,-173.64 198.02,-179.72 199.92,-172.98"/>
</g>
<!-- __muldf3 -->
<g id="node21" class="node">
<title>__muldf3</title>
<ellipse fill="none" stroke="black" cx="125.15" cy="-90" rx="46.29" ry="18"/>
<text text-anchor="middle" x="125.15" y="-86.3" font-family="Times New Roman,serif" font-size="14.00">__muldf3</text>
</g>
<!-- _etoa&#45;&gt;__muldf3 -->
<g id="edge17" class="edge">
<title>_etoa&#45;&gt;__muldf3</title>
<path fill="none" stroke="black" d="M469.07,-225.43C435.61,-215.86 377.1,-198.39 328.15,-180 269.28,-157.89 202.86,-127.74 162.51,-108.83"/>
<polygon fill="black" stroke="black" points="163.86,-105.6 153.32,-104.51 160.88,-111.93 163.86,-105.6"/>
</g>
<!-- __eqdf2 -->
<g id="node22" class="node">
<title>__eqdf2</title>
<ellipse fill="none" stroke="black" cx="1062.15" cy="-90" rx="41.69" ry="18"/>
<text text-anchor="middle" x="1062.15" y="-86.3" font-family="Times New Roman,serif" font-size="14.00">__eqdf2</text>
</g>
<!-- _etoa&#45;&gt;__eqdf2 -->
<g id="edge18" class="edge">
<title>_etoa&#45;&gt;__eqdf2</title>
<path fill="none" stroke="black" d="M523.2,-225.33C551.04,-216.74 595.05,-201.19 629.15,-180 649.46,-167.38 647.3,-153.73 669.15,-144 808.77,-81.84 861.77,-140.36 1011.15,-108 1014.73,-107.22 1018.42,-106.28 1022.09,-105.25"/>
<polygon fill="black" stroke="black" points="1023.14,-108.59 1031.7,-102.34 1021.12,-101.89 1023.14,-108.59"/>
</g>
<!-- __floatsidf -->
<g id="node23" class="node">
<title>__floatsidf</title>
<ellipse fill="none" stroke="black" cx="554.15" cy="-90" rx="50.09" ry="18"/>
<text text-anchor="middle" x="554.15" y="-86.3" font-family="Times New Roman,serif" font-size="14.00">__floatsidf</text>
</g>
<!-- _etoa&#45;&gt;__floatsidf -->
<g id="edge19" class="edge">
<title>_etoa&#45;&gt;__floatsidf</title>
<path fill="none" stroke="black" d="M497.63,-215.94C499.71,-197.51 504.52,-167.63 515.15,-144 519.64,-134 526.25,-124.04 532.75,-115.51"/>
<polygon fill="black" stroke="black" points="535.64,-117.5 539.14,-107.5 530.17,-113.13 535.64,-117.5"/>
</g>
<!-- __subdf3 -->
<g id="node24" class="node">
<title>__subdf3</title>
<ellipse fill="none" stroke="black" cx="440.15" cy="-90" rx="46.29" ry="18"/>
<text text-anchor="middle" x="440.15" y="-86.3" font-family="Times New Roman,serif" font-size="14.00">__subdf3</text>
</g>
<!-- _etoa&#45;&gt;__subdf3 -->
<g id="edge20" class="edge">
<title>_etoa&#45;&gt;__subdf3</title>
<path fill="none" stroke="black" d="M489.5,-216.15C479.86,-191.71 461.9,-146.17 450.51,-117.29"/>
<polygon fill="black" stroke="black" points="453.71,-115.84 446.78,-107.82 447.19,-118.41 453.71,-115.84"/>
</g>
<!-- __fixdfsi -->
<g id="node25" class="node">
<title>__fixdfsi</title>
<ellipse fill="none" stroke="black" cx="233.15" cy="-90" rx="43.59" ry="18"/>
<text text-anchor="middle" x="233.15" y="-86.3" font-family="Times New Roman,serif" font-size="14.00">__fixdfsi</text>
</g>
<!-- _etoa&#45;&gt;__fixdfsi -->
<g id="edge21" class="edge">
<title>_etoa&#45;&gt;__fixdfsi</title>
<path fill="none" stroke="black" d="M473.53,-221.63C452.59,-211.04 420.63,-194.71 393.15,-180 349.15,-156.45 298.94,-128.31 266.68,-110.07"/>
<polygon fill="black" stroke="black" points="268.11,-106.85 257.68,-104.97 264.66,-112.94 268.11,-106.85"/>
</g>
<!-- __gedf2 -->
<g id="node26" class="node">
<title>__gedf2</title>
<ellipse fill="none" stroke="black" cx="335.15" cy="-90" rx="40.89" ry="18"/>
<text text-anchor="middle" x="335.15" y="-86.3" font-family="Times New Roman,serif" font-size="14.00">__gedf2</text>
</g>
<!-- _etoa&#45;&gt;__gedf2 -->
<g id="edge22" class="edge">
<title>_etoa&#45;&gt;__gedf2</title>
<path fill="none" stroke="black" d="M479.82,-218.6C451.7,-193.8 393.92,-142.84 360.51,-113.38"/>
<polygon fill="black" stroke="black" points="362.79,-110.72 352.98,-106.73 358.16,-115.97 362.79,-110.72"/>
</g>
<!-- __adddf3 -->
<g id="node27" class="node">
<title>__adddf3</title>
<ellipse fill="none" stroke="black" cx="46.15" cy="-162" rx="46.29" ry="18"/>
<text text-anchor="middle" x="46.15" y="-158.3" font-family="Times New Roman,serif" font-size="14.00">__adddf3</text>
</g>
<!-- _etoa&#45;&gt;__adddf3 -->
<g id="edge23" class="edge">
<title>_etoa&#45;&gt;__adddf3</title>
<path fill="none" stroke="black" d="M465.96,-230.61C399.58,-224.99 236.19,-209.16 102.15,-180 98.24,-179.15 94.21,-178.16 90.18,-177.09"/>
<polygon fill="black" stroke="black" points="90.84,-173.64 80.27,-174.31 88.95,-180.38 90.84,-173.64"/>
</g>
<!-- _ftoa -->
<g id="node28" class="node">
<title>_ftoa</title>
<ellipse fill="none" stroke="black" cx="554.15" cy="-162" rx="29.8" ry="18"/>
<text text-anchor="middle" x="554.15" y="-158.3" font-family="Times New Roman,serif" font-size="14.00">_ftoa</text>
</g>
<!-- _etoa&#45;&gt;_ftoa -->
<g id="edge24" class="edge">
<title>_etoa&#45;&gt;_ftoa</title>
<path fill="none" stroke="black" d="M504.05,-216.41C510.91,-206.87 520.78,-194.79 530.02,-184.53"/>
<polygon fill="black" stroke="black" points="532.68,-186.82 536.92,-177.11 527.55,-182.05 532.68,-186.82"/>
</g>
<!-- __clzsi2 -->
<g id="node34" class="node">
<title>__clzsi2</title>
<ellipse fill="none" stroke="black" cx="283.15" cy="-18" rx="40.89" ry="18"/>
<text text-anchor="middle" x="283.15" y="-14.3" font-family="Times New Roman,serif" font-size="14.00">__clzsi2</text>
</g>
<!-- __divdf3&#45;&gt;__clzsi2 -->
<g id="edge46" class="edge">
<title>__divdf3&#45;&gt;__clzsi2</title>
<path fill="none" stroke="black" d="M122.48,-149.87C103.54,-141.54 81.28,-128.07 70.15,-108 62.38,-94.01 60.29,-84.61 70.15,-72 90.03,-46.56 176.92,-31.58 233.39,-24.35"/>
<polygon fill="black" stroke="black" points="234.06,-27.8 243.56,-23.1 233.2,-20.85 234.06,-27.8"/>
</g>
<!-- __muldf3&#45;&gt;__clzsi2 -->
<g id="edge47" class="edge">
<title>__muldf3&#45;&gt;__clzsi2</title>
<path fill="none" stroke="black" d="M154.49,-76C180.28,-64.57 217.93,-47.89 245.85,-35.52"/>
<polygon fill="black" stroke="black" points="247.55,-38.6 255.28,-31.35 244.72,-32.2 247.55,-38.6"/>
</g>
<!-- __floatsidf&#45;&gt;__clzsi2 -->
<g id="edge49" class="edge">
<title>__floatsidf&#45;&gt;__clzsi2</title>
<path fill="none" stroke="black" d="M516.75,-78.01C509.59,-75.96 502.15,-73.88 495.15,-72 437.83,-56.58 371.38,-40.21 328.38,-29.82"/>
<polygon fill="black" stroke="black" points="329.05,-26.38 318.51,-27.43 327.41,-33.18 329.05,-26.38"/>
</g>
<!-- __subdf3&#45;&gt;__clzsi2 -->
<g id="edge48" class="edge">
<title>__subdf3&#45;&gt;__clzsi2</title>
<path fill="none" stroke="black" d="M410.98,-76C385.36,-64.57 347.95,-47.89 320.21,-35.52"/>
<polygon fill="black" stroke="black" points="321.39,-32.22 310.84,-31.35 318.54,-38.61 321.39,-32.22"/>
</g>
<!-- __adddf3&#45;&gt;__clzsi2 -->
<g id="edge45" class="edge">
<title>__adddf3&#45;&gt;__clzsi2</title>
<path fill="none" stroke="black" d="M43.68,-143.87C41.84,-123.97 42.19,-91.4 60.15,-72 83.29,-47 175.23,-31.73 233.59,-24.36"/>
<polygon fill="black" stroke="black" points="234.21,-27.81 243.71,-23.12 233.36,-20.86 234.21,-27.81"/>
</g>
<!-- _ftoa&#45;&gt;_out_rev -->
<g id="edge29" class="edge">
<title>_ftoa&#45;&gt;_out_rev</title>
<path fill="none" stroke="black" d="M577.55,-150.75C584.11,-148.22 591.32,-145.73 598.15,-144 720.2,-113.09 765.38,-161.96 879.15,-108 900.17,-98.03 899.92,-87.63 917.15,-72 928.41,-61.78 941.06,-50.72 951.92,-41.35"/>
<polygon fill="black" stroke="black" points="954.51,-43.74 959.82,-34.57 949.95,-38.43 954.51,-43.74"/>
</g>
<!-- _ftoa&#45;&gt;_etoa -->
<g id="edge31" class="edge">
<title>_ftoa&#45;&gt;_etoa</title>
<path fill="none" stroke="black" d="M546.23,-179.61C539.38,-189.12 529.54,-201.18 520.31,-211.42"/>
<polygon fill="black" stroke="black" points="517.67,-209.12 513.43,-218.83 522.8,-213.89 517.67,-209.12"/>
</g>
<!-- _ftoa&#45;&gt;__ledf2 -->
<g id="edge27" class="edge">
<title>_ftoa&#45;&gt;__ledf2</title>
<path fill="none" stroke="black" d="M577.54,-150.69C584.1,-148.15 591.31,-145.68 598.15,-144 734.54,-110.42 774.91,-137.98 912.15,-108 916.32,-107.09 920.64,-105.97 924.91,-104.75"/>
<polygon fill="black" stroke="black" points="926.19,-108.02 934.73,-101.76 924.15,-101.32 926.19,-108.02"/>
</g>
<!-- _ftoa&#45;&gt;__muldf3 -->
<g id="edge28" class="edge">
<title>_ftoa&#45;&gt;__muldf3</title>
<path fill="none" stroke="black" d="M524.76,-158.44C461.29,-152.56 306.86,-136.37 180.15,-108 176.47,-107.18 172.68,-106.23 168.89,-105.21"/>
<polygon fill="black" stroke="black" points="169.53,-101.75 158.95,-102.37 167.61,-108.48 169.53,-101.75"/>
</g>
<!-- _ftoa&#45;&gt;__eqdf2 -->
<g id="edge30" class="edge">
<title>_ftoa&#45;&gt;__eqdf2</title>
<path fill="none" stroke="black" d="M581.72,-154.5C597.57,-150.97 617.89,-146.76 636.15,-144 801.7,-118.97 847.35,-142.69 1011.15,-108 1014.74,-107.24 1018.43,-106.31 1022.1,-105.29"/>
<polygon fill="black" stroke="black" points="1023.15,-108.63 1031.71,-102.39 1021.13,-101.92 1023.15,-108.63"/>
</g>
<!-- _ftoa&#45;&gt;__floatsidf -->
<g id="edge32" class="edge">
<title>_ftoa&#45;&gt;__floatsidf</title>
<path fill="none" stroke="black" d="M554.15,-143.7C554.15,-135.98 554.15,-126.71 554.15,-118.11"/>
<polygon fill="black" stroke="black" points="557.65,-118.1 554.15,-108.1 550.65,-118.1 557.65,-118.1"/>
</g>
<!-- _ftoa&#45;&gt;__subdf3 -->
<g id="edge33" class="edge">
<title>_ftoa&#45;&gt;__subdf3</title>
<path fill="none" stroke="black" d="M534.03,-148.65C517.07,-138.23 492.47,-123.13 472.71,-110.99"/>
<polygon fill="black" stroke="black" points="474.36,-107.9 464.01,-105.65 470.7,-113.87 474.36,-107.9"/>
</g>
<!-- _ftoa&#45;&gt;__fixdfsi -->
<g id="edge34" class="edge">
<title>_ftoa&#45;&gt;__fixdfsi</title>
<path fill="none" stroke="black" d="M525.62,-156.55C476.22,-148.59 371.73,-130.59 285.15,-108 281.83,-107.13 278.41,-106.17 274.99,-105.17"/>
<polygon fill="black" stroke="black" points="276.01,-101.82 265.42,-102.22 273.95,-108.51 276.01,-101.82"/>
</g>
<!-- _ftoa&#45;&gt;__gedf2 -->
<g id="edge35" class="edge">
<title>_ftoa&#45;&gt;__gedf2</title>
<path fill="none" stroke="black" d="M528.03,-153.02C494.77,-142.81 435.57,-124.47 385.15,-108 382.19,-107.03 379.14,-106.03 376.07,-105"/>
<polygon fill="black" stroke="black" points="376.91,-101.59 366.31,-101.73 374.68,-108.23 376.91,-101.59"/>
</g>
<!-- __fixunsdfsi -->
<g id="node29" class="node">
<title>__fixunsdfsi</title>
<ellipse fill="none" stroke="black" cx="814.15" cy="-90" rx="55.79" ry="18"/>
<text text-anchor="middle" x="814.15" y="-86.3" font-family="Times New Roman,serif" font-size="14.00">__fixunsdfsi</text>
</g>
<!-- _ftoa&#45;&gt;__fixunsdfsi -->
<g id="edge26" class="edge">
<title>_ftoa&#45;&gt;__fixunsdfsi</title>
<path fill="none" stroke="black" d="M578.15,-151.06C584.58,-148.57 591.58,-146.04 598.15,-144 664.03,-123.52 682.21,-124.73 749.15,-108 753.46,-106.92 757.94,-105.79 762.43,-104.64"/>
<polygon fill="black" stroke="black" points="763.41,-108 772.22,-102.11 761.66,-101.22 763.41,-108"/>
</g>
<!-- __floatunsidf -->
<g id="node30" class="node">
<title>__floatunsidf</title>
<ellipse fill="none" stroke="black" cx="681.15" cy="-90" rx="59.29" ry="18"/>
<text text-anchor="middle" x="681.15" y="-86.3" font-family="Times New Roman,serif" font-size="14.00">__floatunsidf</text>
</g>
<!-- _ftoa&#45;&gt;__floatunsidf -->
<g id="edge36" class="edge">
<title>_ftoa&#45;&gt;__floatunsidf</title>
<path fill="none" stroke="black" d="M575.4,-149.28C594.27,-138.88 622.24,-123.47 644.68,-111.1"/>
<polygon fill="black" stroke="black" points="646.53,-114.08 653.6,-106.18 643.15,-107.95 646.53,-114.08"/>
</g>
<!-- __floatunsidf&#45;&gt;__clzsi2 -->
<g id="edge50" class="edge">
<title>__floatunsidf&#45;&gt;__clzsi2</title>
<path fill="none" stroke="black" d="M638.11,-77.65C629.85,-75.64 621.25,-73.66 613.15,-72 513.93,-51.67 396.61,-34.43 331.99,-25.51"/>
<polygon fill="black" stroke="black" points="332.08,-21.99 321.7,-24.1 331.13,-28.92 332.08,-21.99"/>
</g>
<!-- _vsnprintf&#45;&gt;_ntoa_long -->
<g id="edge40" class="edge">
<title>_vsnprintf&#45;&gt;_ntoa_long</title>
<path fill="none" stroke="black" d="M730.15,-287.87C730.15,-263.67 730.15,-219.21 730.15,-190.39"/>
<polygon fill="black" stroke="black" points="733.65,-190.19 730.15,-180.19 726.65,-190.19 733.65,-190.19"/>
</g>
<!-- _vsnprintf&#45;&gt;_ntoa_long_long -->
<g id="edge39" class="edge">
<title>_vsnprintf&#45;&gt;_ntoa_long_long</title>
<path fill="none" stroke="black" d="M754.67,-290.33C771.26,-280.4 793.42,-267.15 811.89,-256.1"/>
<polygon fill="black" stroke="black" points="813.83,-259.01 820.62,-250.87 810.24,-253 813.83,-259.01"/>
</g>
<!-- _vsnprintf&#45;&gt;_etoa -->
<g id="edge38" class="edge">
<title>_vsnprintf&#45;&gt;_etoa</title>
<path fill="none" stroke="black" d="M693.84,-294.14C649.89,-280.99 576.33,-258.99 532.41,-245.85"/>
<polygon fill="black" stroke="black" points="533.29,-242.46 522.71,-242.95 531.29,-249.17 533.29,-242.46"/>
</g>
<!-- _vsnprintf&#45;&gt;_ftoa -->
<g id="edge37" class="edge">
<title>_vsnprintf&#45;&gt;_ftoa</title>
<path fill="none" stroke="black" d="M710.64,-289.26C678.57,-263.39 614.75,-211.9 579.32,-183.31"/>
<polygon fill="black" stroke="black" points="581.36,-180.46 571.38,-176.91 576.97,-185.91 581.36,-180.46"/>
</g>
</g>
</svg>
