<?xml version="1.0" encoding="UTF-8" standalone="no"?>
<!DOCTYPE svg PUBLIC "-//W3C//DTD SVG 1.1//EN"
 "http://www.w3.org/Graphics/SVG/1.1/DTD/svg11.dtd">
<!-- Generated by graphviz version 11.0.0 (20240428.1522)
 -->
<!-- Pages: 1 -->
<svg width="601pt" height="332pt"
 viewBox="0.00 0.00 601.09 332.00" xmlns="http://www.w3.org/2000/svg" xmlns:xlink="http://www.w3.org/1999/xlink">
<g id="graph0" class="graph" transform="scale(1 1) rotate(0) translate(4 328)">
<polygon fill="white" stroke="none" points="-4,4 -4,-328 597.09,-328 597.09,4 -4,4"/>
<!-- __to_main -->
<g id="node1" class="node">
<title>__to_main</title>
<ellipse fill="none" stroke="black" cx="318.01" cy="-306" rx="50.56" ry="18"/>
<text text-anchor="middle" x="318.01" y="-300.57" font-family="Times New Roman,serif" font-size="14.00">__to_main</text>
</g>
<!-- main -->
<g id="node2" class="node">
<title>main</title>
<ellipse fill="none" stroke="black" cx="318.01" cy="-234" rx="28.11" ry="18"/>
<text text-anchor="middle" x="318.01" y="-228.57" font-family="Times New Roman,serif" font-size="14.00">main</text>
</g>
<!-- __to_main&#45;&gt;main -->
<g id="edge1" class="edge">
<title>__to_main&#45;&gt;main</title>
<path fill="none" stroke="black" d="M318.01,-287.7C318.01,-280.41 318.01,-271.73 318.01,-263.54"/>
<polygon fill="black" stroke="black" points="321.51,-263.62 318.01,-253.62 314.51,-263.62 321.51,-263.62"/>
</g>
<!-- puts -->
<g id="node3" class="node">
<title>puts</title>
<ellipse fill="none" stroke="black" cx="122.01" cy="-162" rx="27" ry="18"/>
<text text-anchor="middle" x="122.01" y="-156.57" font-family="Times New Roman,serif" font-size="14.00">puts</text>
</g>
<!-- main&#45;&gt;puts -->
<g id="edge5" class="edge">
<title>main&#45;&gt;puts</title>
<path fill="none" stroke="black" d="M293.98,-224.42C259.48,-212.1 195.74,-189.33 156.3,-175.25"/>
<polygon fill="black" stroke="black" points="157.65,-172.01 147.05,-171.94 155.29,-178.6 157.65,-172.01"/>
</g>
<!-- ck_uart_open -->
<g id="node8" class="node">
<title>ck_uart_open</title>
<ellipse fill="none" stroke="black" cx="251.01" cy="-162" rx="62.04" ry="18"/>
<text text-anchor="middle" x="251.01" y="-156.57" font-family="Times New Roman,serif" font-size="14.00">ck_uart_open</text>
</g>
<!-- main&#45;&gt;ck_uart_open -->
<g id="edge6" class="edge">
<title>main&#45;&gt;ck_uart_open</title>
<path fill="none" stroke="black" d="M303.8,-218.15C295.4,-209.38 284.54,-198.03 274.86,-187.91"/>
<polygon fill="black" stroke="black" points="277.57,-185.69 268.13,-180.88 272.51,-190.53 277.57,-185.69"/>
</g>
<!-- ck_uart_init -->
<g id="node9" class="node">
<title>ck_uart_init</title>
<ellipse fill="none" stroke="black" cx="386.01" cy="-162" rx="54.56" ry="18"/>
<text text-anchor="middle" x="386.01" y="-156.57" font-family="Times New Roman,serif" font-size="14.00">ck_uart_init</text>
</g>
<!-- main&#45;&gt;ck_uart_init -->
<g id="edge7" class="edge">
<title>main&#45;&gt;ck_uart_init</title>
<path fill="none" stroke="black" d="M332.43,-218.15C341.08,-209.25 352.3,-197.71 362.23,-187.48"/>
<polygon fill="black" stroke="black" points="364.67,-189.99 369.13,-180.38 359.65,-185.11 364.67,-189.99"/>
</g>
<!-- qsort -->
<g id="node10" class="node">
<title>qsort</title>
<ellipse fill="none" stroke="black" cx="519.01" cy="-162" rx="30.11" ry="18"/>
<text text-anchor="middle" x="519.01" y="-156.57" font-family="Times New Roman,serif" font-size="14.00">qsort</text>
</g>
<!-- main&#45;&gt;qsort -->
<g id="edge8" class="edge">
<title>main&#45;&gt;qsort</title>
<path fill="none" stroke="black" d="M342.25,-224.56C377.19,-212.39 441.93,-189.84 482.62,-175.67"/>
<polygon fill="black" stroke="black" points="483.69,-179.01 491.98,-172.41 481.39,-172.4 483.69,-179.01"/>
</g>
<!-- fputc -->
<g id="node4" class="node">
<title>fputc</title>
<ellipse fill="none" stroke="black" cx="78.01" cy="-90" rx="30.11" ry="18"/>
<text text-anchor="middle" x="78.01" y="-84.58" font-family="Times New Roman,serif" font-size="14.00">fputc</text>
</g>
<!-- puts&#45;&gt;fputc -->
<g id="edge2" class="edge">
<title>puts&#45;&gt;fputc</title>
<path fill="none" stroke="black" d="M112.03,-145.12C106.81,-136.82 100.3,-126.46 94.37,-117.03"/>
<polygon fill="black" stroke="black" points="97.35,-115.19 89.07,-108.59 91.42,-118.92 97.35,-115.19"/>
</g>
<!-- &lt;ck_uart_putc&gt; * -->
<g id="node7" class="node">
<title>&lt;ck_uart_putc&gt; *</title>
<ellipse fill="none" stroke="black" cx="78.01" cy="-18" rx="78.01" ry="18"/>
<text text-anchor="middle" x="78.01" y="-12.57" font-family="Times New Roman,serif" font-size="14.00">&lt;ck_uart_putc&gt; *</text>
</g>
<!-- fputc&#45;&gt;&lt;ck_uart_putc&gt; * -->
<g id="edge4" class="edge">
<title>fputc&#45;&gt;&lt;ck_uart_putc&gt; *</title>
<path fill="none" stroke="black" d="M78.01,-71.7C78.01,-64.41 78.01,-55.73 78.01,-47.54"/>
<polygon fill="black" stroke="black" points="81.51,-47.62 78.01,-37.62 74.51,-47.62 81.51,-47.62"/>
</g>
<!-- compare -->
<g id="node5" class="node">
<title>compare</title>
<ellipse fill="none" stroke="black" cx="550.01" cy="-90" rx="43.08" ry="18"/>
<text text-anchor="middle" x="550.01" y="-84.58" font-family="Times New Roman,serif" font-size="14.00">compare</text>
</g>
<!-- strcmp -->
<g id="node6" class="node">
<title>strcmp</title>
<ellipse fill="none" stroke="black" cx="550.01" cy="-18" rx="36.59" ry="18"/>
<text text-anchor="middle" x="550.01" y="-12.57" font-family="Times New Roman,serif" font-size="14.00">strcmp</text>
</g>
<!-- compare&#45;&gt;strcmp -->
<g id="edge3" class="edge">
<title>compare&#45;&gt;strcmp</title>
<path fill="none" stroke="black" d="M550.01,-71.7C550.01,-64.41 550.01,-55.73 550.01,-47.54"/>
<polygon fill="black" stroke="black" points="553.51,-47.62 550.01,-37.62 546.51,-47.62 553.51,-47.62"/>
</g>
<!-- ck_uart_set_wordsize -->
<g id="node11" class="node">
<title>ck_uart_set_wordsize</title>
<ellipse fill="none" stroke="black" cx="219.01" cy="-90" rx="92.48" ry="18"/>
<text text-anchor="middle" x="219.01" y="-84.58" font-family="Times New Roman,serif" font-size="14.00">ck_uart_set_wordsize</text>
</g>
<!-- ck_uart_init&#45;&gt;ck_uart_set_wordsize -->
<g id="edge9" class="edge">
<title>ck_uart_init&#45;&gt;ck_uart_set_wordsize</title>
<path fill="none" stroke="black" d="M353.41,-147.34C328.84,-137.04 294.74,-122.75 267.05,-111.14"/>
<polygon fill="black" stroke="black" points="268.75,-108.05 258.17,-107.42 266.04,-114.51 268.75,-108.05"/>
</g>
<!-- ck_uart_set_parity -->
<g id="node12" class="node">
<title>ck_uart_set_parity</title>
<ellipse fill="none" stroke="black" cx="409.01" cy="-90" rx="80.01" ry="18"/>
<text text-anchor="middle" x="409.01" y="-84.58" font-family="Times New Roman,serif" font-size="14.00">ck_uart_set_parity</text>
</g>
<!-- ck_uart_init&#45;&gt;ck_uart_set_parity -->
<g id="edge10" class="edge">
<title>ck_uart_init&#45;&gt;ck_uart_set_parity</title>
<path fill="none" stroke="black" d="M391.7,-143.7C394.15,-136.24 397.08,-127.32 399.82,-118.97"/>
<polygon fill="black" stroke="black" points="403.12,-120.14 402.92,-109.54 396.47,-117.95 403.12,-120.14"/>
</g>
<!-- qsort&#45;&gt;compare -->
<g id="edge11" class="edge">
<title>qsort&#45;&gt;compare</title>
<path fill="none" stroke="black" d="M526.36,-144.41C529.82,-136.59 534.04,-127.06 537.95,-118.23"/>
<polygon fill="black" stroke="black" points="541.04,-119.9 541.89,-109.34 534.64,-117.07 541.04,-119.9"/>
</g>
</g>
</svg>
